<svg xmlns="http://www.w3.org/2000/svg" xmlns:xlink="http://www.w3.org/1999/xlink" viewBox="0 0 881 941.8"><defs><style>.cls-1,.cls-13,.cls-8{fill:none;}.cls-2{fill:#949494;}.cls-3{fill:url(#New_Pattern);}.cls-4{fill:#f8f8f8;}.cls-5{fill:#56cad8;}.cls-6{fill:#74d5de;}.cls-7{fill:#fed385;}.cls-8{stroke:#000;stroke-width:2.5px;}.cls-13,.cls-8,.cls-9{stroke-linecap:round;}.cls-13,.cls-8{stroke-linejoin:round;}.cls-13,.cls-9{stroke:#dfdfdf;}.cls-9{stroke-miterlimit:10;stroke-width:6.84px;}.cls-10{fill:#d37c59;}.cls-11{fill:#fed892;}.cls-12{fill:#dfdfdf;}.cls-13{stroke-width:5.71px;}.cls-14{fill:#de8e68;}</style><pattern id="New_Pattern" data-name="New Pattern" width="12" height="12" patternTransform="matrix(-1, 0, 0, 1, 8.02, -34.45)" patternUnits="userSpaceOnUse" viewBox="0 0 12 12"><rect class="cls-1" width="12" height="12"/><rect class="cls-1" width="12" height="12"/><circle class="cls-2" cx="12" cy="3" r="2"/><circle class="cls-2" cx="6" r="2"/><circle class="cls-2" cy="3" r="2"/><circle class="cls-2" cx="12" cy="9" r="2"/><circle class="cls-2" cx="6" cy="6" r="2"/><circle class="cls-2" cy="9" r="2"/><circle class="cls-2" cx="6" cy="12" r="2"/></pattern></defs><title>carry-on-colour</title><g id="Layer_2" data-name="Layer 2"><g id="shadow"><path class="cls-3" d="M455.52,273c0,13.67-10.28,69.33-23.7,58,.19,12.88,2.29,47.22,2.29,47.22l4.09,14.57,7.12,2.44,27.69-.77-.83-41.73L471,312.31l-11.69-2.88-3.14-6.15-.6-16.13Z"/></g><g id="Layer_2-2" data-name="Layer 2"><path d="M680.68,902.91c.4,4.86,2.43,32.81,13.16,33.82s68.65-26.32,70.28-33.82a21.85,21.85,0,0,0-2-14l-53.67,5.26"/><path d="M285.49,878.12c-4.2,5.4-15,20-15,25S284.15,939.1,294,941s50.54.59,50.54-5.82c0-12.69-22.54-12.69-24.68-14.71S311,894.13,311,890.1,285.49,878.12,285.49,878.12Z"/><path class="cls-4" d="M782.28,511.35C733.34,428.13,701,370.81,653.73,286.44c-30.2-53.95-66.4-118.95-109.43-164.34l-5.09,8.09-7.84,7.33L521,142.59l-.3,9.52.3,8.47,1.32,1.81L532.9,168l8.8,7.49L554,192l9.22,18.66,6.33,17.14L575.57,249l4.08,18.07,4.48,25.9,2.64,21.18,2.43,40.3L587.49,373l-54.11,33.73,1,116.24-77.07,43.38-11.79-58.12,18.11-67.81L441.5,394.79l-3.58-2.89L434.77,382l-2.2-30.74-.75-30.42,2.14-40,3-20.68,3.52-16.29,5.41-19,6.91-19.5,8.68-14.88,6.57-8.67,10.23-9.66,3.56-1.56.38-46.22-4.38-8.89-15.77-7,6.29-24.69,18.61-6a122.79,122.79,0,0,0-22.17-8.33c-79.8-21.14-177.3,48-264.91,125.32C112.49,272,35,357.47,9.46,458.41S10.6,675.9,82.78,733.6c72,57.9,189.68,56.94,291.76,90.65,102.08,33.9,188.73,102.46,284.14,106.27a220.07,220.07,0,0,0,27.27-.63l-5.67-25.78,33-10.38,48.84-4.79,2.37,8.31-.46,6L760.16,908,736,920.24c68.12-20.58,127.43-69.79,141.47-131.79C896.93,703.51,831.22,594.39,782.28,511.35Z"/><path class="cls-5" d="M439.44,393.54C428.78,432.87,400.82,617.67,400.82,624c0,6.84-118.66,248.71-118.2,253.73s29.66,15.06,29.66,15.06S477.48,677.8,488,668.21c10.09-9.21,101.95-236.38,97.45-293.67C567.86,384.12,455.55,400.59,439.44,393.54Z"/><path class="cls-6" d="M584.1,375.2C563.3,384.64,460,399.74,440.62,394c0,.43-.07.84-.09,1.28-2.25,63.15,106.68,244.87,111.19,253.89s124.71,247.92,127,256.18c6,2.26,30.8-3.75,34.56-12.77Z"/><path class="cls-7" d="M521,162.39C584.26,179.93,594,363.93,587.49,373c-6.83,9.57-141.48,29.58-149.61,19.51-7.23-8.95-19.71-181.77,44-222.78"/><path class="cls-8" d="M477.85,115.94q-.59-1.38-1.11-2.82"/><line class="cls-9" x1="129.43" y1="931.95" x2="490.33" y2="501.69"/><path class="cls-10" d="M527.21,309c-2.17,37.88-13,185.33-20.55,198.84-8.37,15.07-30.56,31-34.33,31s-19.25-20.09-19.25-26.37,21.35-30.14,22.18-37.68c.73-6.52-4.19-124.89-4.71-162.93"/><path class="cls-11" d="M503.39,195.26c49.22,0,42.38,105.27,34.18,110.73s-72.46,9.57-79.29,2.74S454.17,195.26,503.39,195.26Z"/><path class="cls-12" d="M60.65,731.86H274.74a27.54,27.54,0,0,1,27.54,27.54v92.94a0,0,0,0,1,0,0H33.11a0,0,0,0,1,0,0V759.4A27.54,27.54,0,0,1,60.65,731.86Z" transform="translate(-547.12 411.85) rotate(-50.04)"/><circle class="cls-13" cx="169.76" cy="913.37" r="17.32"/><path class="cls-10" d="M481.85,123.82v51.31c0,5.86,15.73,7.29,27.25,5.66,4.17-1.3,11.91-1.3,11.91-4.1V134.51L488.58,122l-3.95-1.09"/><ellipse class="cls-14" cx="510.51" cy="85.1" rx="40.06" ry="58.77"/><path d="M501.15,0c-19.4,0-65,22.75-92.21,22.75-20.53,0-48.18-21.52-71.51-21.52-43.53,0-51.64,54.71-51.64,67.42,0,39.93,26.64,49.58,35.45,49.58,17.19,0,58.22-14.14,79.1-14.14,23.15,0,48.44,14.14,62.9,14.14,12.42,0,18-4.5,19.22-5.52.38-.32.29-2.5.12-5.39a12.25,12.25,0,0,1-1.73.13,13.48,13.48,0,1,1,8.47-24c8.13-5.9,24-10.07,28.52-12.82,11.92-7.21,23.69-16.67,24.21-19.13,1.58,2.56,3.47,5.49,6.23,13.95,5.61-2.37,12.91-9.23,12.91-29.43C561.19,4.21,511.81,0,501.15,0Z"/><path class="cls-14" d="M486.94,107a13.91,13.91,0,0,1-5.53,1.13,14.13,14.13,0,1,1,9.64-24.45"/></g></g></svg>